<svg id="Layer_1" enable-background="new 0 0 512 512" height="512" viewBox="0 0 512 512" width="512" xmlns="http://www.w3.org/2000/svg"><g><path d="m0 209.826v286.174c0 8.837 7.163 16 16 16h480c8.837 0 16-7.163 16-16v-286.174c0-4.239-4.944-6.555-8.201-3.841l-237.559 197.975c-5.923 4.943-14.548 4.95-20.48 0l-237.559-197.976c-3.257-2.714-8.201-.398-8.201 3.842z"/><path d="m416 235.498v-219.498c0-8.837-7.163-16-16-16h-288c-8.837 0-16 7.163-16 16v219.172c0 1.482.657 2.887 1.794 3.837l155.004 129.486c1.854 1.549 4.55 1.551 6.406.004l154.996-129.16c1.141-.95 1.8-2.357 1.8-3.841zm-248-123.498c0-17.65 14.35-32 32-32s32 14.35 32 32-14.35 32-32 32-32-14.35-32-32zm44.63 137.82c-5.396 6.955-15.452 8.25-22.45 2.81-6.98-5.43-8.23-15.48-2.81-22.45l112-144c5.43-6.98 15.48-8.23 22.45-2.81 6.98 5.43 8.23 15.48 2.81 22.45zm99.37 6.18c-17.65 0-32-14.35-32-32s14.35-32 32-32 32 14.35 32 32-14.35 32-32 32z"/><path d="m448 141.675v58.65c0 4.239 4.944 6.555 8.201 3.841l35.19-29.325c2.399-1.999 2.399-5.683 0-7.682l-35.19-29.325c-3.257-2.714-8.201-.398-8.201 3.841z"/><path d="m64 141.675v58.65c0 4.239-4.944 6.555-8.201 3.841l-35.19-29.325c-2.399-1.999-2.399-5.683 0-7.682l35.19-29.325c3.257-2.714 8.201-.398 8.201 3.841z"/></g></svg>