<svg id="Capa_1" enable-background="new 0 0 508.008 508.008" height="512" viewBox="0 0 508.008 508.008" width="512" xmlns="http://www.w3.org/2000/svg"><g><g><path d="m431.627 92.427c-11.367-28.429-38.488-46.785-69.096-46.785h-4.346v-14.884h-208.362v14.883h-4.346c-30.609 0-57.73 18.357-69.096 46.785l-47.763 116.929h-28.618v29.766h21.409c6.845 0 12.776 4.637 14.447 11.264l49.246 193.058c4.97 19.897 22.789 33.806 43.312 33.806h251.18c20.523 0 39.334-13.91 44.304-33.821l48.254-193.029c1.672-6.642 7.601-11.278 14.447-11.278h21.409v-29.766h-28.618zm-252.038 325.29h-29.766v-148.83h29.766zm89.298 0h-29.766v-148.83h29.766zm89.298 0h-29.766v-148.83h29.766zm-254.159-314.244c6.816-17.048 23.095-28.065 41.451-28.065h4.346v14.882h208.363v-14.883h4.346c18.357 0 34.635 11.017 41.451 28.065l43.345 105.882h-386.648z"/></g></g></svg>